<svg data-v-fde0c5aa="" xmlns="http://www.w3.org/2000/svg" viewBox="0 100 300 100" class="iconLeft"><!----><defs data-v-fde0c5aa=""><!----></defs><rect data-v-fde0c5aa="" fill="#30C47E" x="0" y="0" width="300px" height="300px" class="logo-background-square"></rect><defs data-v-fde0c5aa=""><!----></defs><g data-v-fde0c5aa="" id="3d9f92de-f5a4-4e73-817f-5b3a1fd1a9a2" fill="#2C4845" transform="matrix(2.4128684997558594,0,0,2.4128684997558594,88.66219797309259,127.89812400635542)"><path d="M5.74 7.11L3.70 12.59L1.65 7.11L0.13 7.11L2.84 14L4.55 14L7.27 7.11ZM13.57 7.11L13.57 8.11C12.96 7.41 12.08 6.99 11.06 6.99C9.11 6.99 7.69 8.48 7.69 10.56C7.69 12.63 9.11 14.13 11.06 14.13C12.08 14.13 12.96 13.71 13.57 13.01L13.57 14L14.99 14L14.99 7.11ZM11.35 12.88C10.08 12.88 9.16 11.91 9.16 10.56C9.16 9.21 10.08 8.23 11.35 8.23C12.64 8.23 13.57 9.21 13.57 10.56C13.57 11.91 12.64 12.88 11.35 12.88ZM16.76 4.31L16.76 14L18.19 14L18.19 4.31ZM26.17 7.11L24.74 7.11L24.74 11.16C24.74 12.24 24.05 12.94 23.02 12.94C21.98 12.94 21.31 12.24 21.31 11.16L21.31 7.11L19.88 7.11L19.88 11.16C19.88 12.92 21.15 14.13 23.03 14.13C24.89 14.13 26.17 12.92 26.17 11.16ZM34.80 10.57C34.79 8.48 33.26 6.99 31.14 6.99C29.01 6.99 27.45 8.48 27.45 10.56C27.45 12.63 29.01 14.13 31.14 14.13C32.83 14.13 34.30 13.03 34.69 11.51L33.24 11.51C32.97 12.33 32.13 12.95 31.15 12.95C29.96 12.95 29.05 12.15 28.87 11.00L34.76 11.00C34.79 10.86 34.80 10.71 34.80 10.57ZM31.15 8.16C32.28 8.16 33.19 8.88 33.43 9.90L28.91 9.90C29.16 8.86 30.03 8.16 31.15 8.16ZM38.77 5.40C38.92 5.40 39.12 5.43 39.30 5.50L39.30 4.24C39.12 4.20 38.91 4.19 38.75 4.19C37.44 4.19 36.51 5.01 36.51 6.19L36.51 7.11L35.52 7.11L35.52 8.32L36.51 8.32L36.51 14L37.94 14L37.94 8.32L39.30 8.32L39.30 7.11L37.94 7.11L37.94 6.19C37.94 5.71 38.29 5.40 38.77 5.40ZM43.60 6.99C41.47 6.99 39.91 8.48 39.91 10.56C39.91 12.63 41.47 14.13 43.60 14.13C45.72 14.13 47.26 12.63 47.26 10.56C47.26 8.48 45.72 6.99 43.60 6.99ZM43.58 8.23C44.87 8.23 45.79 9.21 45.79 10.56C45.79 11.91 44.87 12.88 43.58 12.88C42.31 12.88 41.38 11.91 41.38 10.56C41.38 9.21 42.31 8.23 43.58 8.23ZM51.90 6.99C49.77 6.99 48.22 8.48 48.22 10.56C48.22 12.63 49.77 14.13 51.90 14.13C54.03 14.13 55.57 12.63 55.57 10.56C55.57 8.48 54.03 6.99 51.90 6.99ZM51.88 8.23C53.17 8.23 54.10 9.21 54.10 10.56C54.10 11.91 53.17 12.88 51.88 12.88C50.61 12.88 49.69 11.91 49.69 10.56C49.69 9.21 50.61 8.23 51.88 8.23ZM62.40 4.31L62.40 8.11C61.80 7.41 60.91 6.99 59.89 6.99C57.95 6.99 56.52 8.48 56.52 10.56C56.52 12.63 57.95 14.13 59.89 14.13C60.91 14.13 61.80 13.71 62.40 13.01L62.40 14L63.83 14L63.83 4.31ZM60.19 12.88C58.91 12.88 57.99 11.91 57.99 10.56C57.99 9.21 58.91 8.23 60.19 8.23C61.47 8.23 62.40 9.21 62.40 10.56C62.40 11.91 61.47 12.88 60.19 12.88ZM68.15 6.99C66.54 6.99 65.45 7.81 65.45 9.06C65.45 10.68 67.09 10.99 68.12 11.14C68.91 11.28 69.59 11.40 69.59 12.11C69.59 12.68 69.02 13.06 68.22 13.06C67.37 13.06 66.75 12.63 66.72 11.97L65.32 11.97C65.34 13.24 66.51 14.13 68.18 14.13C69.83 14.13 71.01 13.27 71.01 12.03C71.01 10.37 69.27 10.08 68.29 9.90C67.49 9.74 66.86 9.63 66.86 8.92C66.86 8.40 67.40 8.04 68.12 8.04C68.92 8.04 69.47 8.46 69.50 9.07L70.84 9.07C70.84 7.84 69.72 6.99 68.15 6.99Z"></path></g><defs data-v-fde0c5aa=""><!----></defs><g data-v-fde0c5aa="" id="1e634f20-2834-43c9-b065-e648b9f166e4" stroke="none" fill="#2C4845" transform="matrix(0.4845235049724579,0,0,0.4845235049724579,33.701194327006824,125.71325981963349)"><path d="M60.25 60.25l19.108-6.369c1.687-3.824 3.018-7.774 4.06-11.63H69.25l15.41-5.137c2.585-11.989 2.59-21.864 2.59-21.864s-45-9-63 9-9 36-9 36l36-18-36 27v18h9v-9s27 9 45-9c2.662-2.662 4.922-5.725 6.855-9H60.25z"></path></g><!----></svg>